<mxfile host="drawio-plugin" modified="2021-07-18T19:49:29.229Z" agent="5.0 (Windows NT 6.2; Win64; x64) AppleWebKit/537.36 (KHTML, like Gecko) Chrome/84.0.4147.105 Safari/537.36" etag="HWEceDNN9pG6VW9WdQqP" version="14.7.4" type="embed"><diagram id="GUhuI4l8J9emcXWNbid8" name="Page-1"><mxGraphModel dx="404" dy="297" grid="1" gridSize="10" guides="1" tooltips="1" connect="1" arrows="1" fold="1" page="1" pageScale="1" pageWidth="850" pageHeight="1100" math="0" shadow="0"><root><mxCell id="0"/><mxCell id="1" parent="0"/><mxCell id="2" value="Filter" style="rounded=0;whiteSpace=wrap;html=1;fillColor=#60a917;strokeColor=#2D7600;fontColor=#ffffff;" parent="1" vertex="1"><mxGeometry x="360" y="360" width="120" height="40" as="geometry"/></mxCell><mxCell id="3" value="Tag" style="rounded=0;whiteSpace=wrap;html=1;fillColor=#60a917;strokeColor=#2D7600;fontColor=#ffffff;" parent="1" vertex="1"><mxGeometry x="200" y="360" width="120" height="40" as="geometry"/></mxCell><mxCell id="6" value="Settlement" style="rounded=0;whiteSpace=wrap;html=1;fillColor=#60a917;strokeColor=#2D7600;fontColor=#ffffff;" parent="1" vertex="1"><mxGeometry x="120" y="280" width="120" height="40" as="geometry"/></mxCell><mxCell id="9" value="" style="endArrow=classic;html=1;exitX=0.25;exitY=1;exitDx=0;exitDy=0;" parent="1" source="10" edge="1"><mxGeometry width="50" height="50" relative="1" as="geometry"><mxPoint x="300" y="280" as="sourcePoint"/><mxPoint x="290" y="360" as="targetPoint"/></mxGeometry></mxCell><mxCell id="10" value="Rule" style="rounded=0;whiteSpace=wrap;html=1;" parent="1" vertex="1"><mxGeometry x="280" y="280" width="120" height="40" as="geometry"/></mxCell><mxCell id="12" value="" style="endArrow=classic;html=1;exitX=0.75;exitY=1;exitDx=0;exitDy=0;entryX=0.25;entryY=0;entryDx=0;entryDy=0;" parent="1" source="10" target="2" edge="1"><mxGeometry width="50" height="50" relative="1" as="geometry"><mxPoint x="400" y="300" as="sourcePoint"/><mxPoint x="450" y="250" as="targetPoint"/></mxGeometry></mxCell><mxCell id="15" value="" style="endArrow=classic;html=1;exitX=0.75;exitY=1;exitDx=0;exitDy=0;entryX=0.25;entryY=0;entryDx=0;entryDy=0;" parent="1" source="6" target="3" edge="1"><mxGeometry width="50" height="50" relative="1" as="geometry"><mxPoint x="400" y="300" as="sourcePoint"/><mxPoint x="450" y="250" as="targetPoint"/></mxGeometry></mxCell><mxCell id="16" value="Wallet" style="rounded=0;whiteSpace=wrap;html=1;" parent="1" vertex="1"><mxGeometry x="280" y="200" width="120" height="40" as="geometry"/></mxCell><mxCell id="17" value="" style="endArrow=classic;html=1;entryX=0.75;entryY=0;entryDx=0;entryDy=0;exitX=0.25;exitY=1;exitDx=0;exitDy=0;" parent="1" source="16" target="6" edge="1"><mxGeometry width="50" height="50" relative="1" as="geometry"><mxPoint x="300" y="310" as="sourcePoint"/><mxPoint x="350" y="260" as="targetPoint"/></mxGeometry></mxCell><mxCell id="18" value="" style="endArrow=classic;html=1;exitX=0.5;exitY=1;exitDx=0;exitDy=0;entryX=0.5;entryY=0;entryDx=0;entryDy=0;" parent="1" source="16" target="10" edge="1"><mxGeometry width="50" height="50" relative="1" as="geometry"><mxPoint x="300" y="310" as="sourcePoint"/><mxPoint x="350" y="260" as="targetPoint"/></mxGeometry></mxCell><mxCell id="20" value="User" style="rounded=0;whiteSpace=wrap;html=1;" parent="1" vertex="1"><mxGeometry x="280" y="120" width="120" height="40" as="geometry"/></mxCell><mxCell id="21" value="" style="endArrow=classic;html=1;entryX=0.5;entryY=0;entryDx=0;entryDy=0;exitX=0.5;exitY=1;exitDx=0;exitDy=0;" parent="1" source="20" target="16" edge="1"><mxGeometry width="50" height="50" relative="1" as="geometry"><mxPoint x="300" y="310" as="sourcePoint"/><mxPoint x="350" y="260" as="targetPoint"/></mxGeometry></mxCell><mxCell id="22" value="Cards" style="rounded=0;whiteSpace=wrap;html=1;" parent="1" vertex="1"><mxGeometry x="440" y="280" width="120" height="40" as="geometry"/></mxCell><mxCell id="24" value="" style="endArrow=classic;html=1;exitX=0.75;exitY=1;exitDx=0;exitDy=0;entryX=0.25;entryY=0;entryDx=0;entryDy=0;" parent="1" source="16" target="22" edge="1"><mxGeometry width="50" height="50" relative="1" as="geometry"><mxPoint x="440" y="300" as="sourcePoint"/><mxPoint x="490" y="250" as="targetPoint"/></mxGeometry></mxCell><mxCell id="26" value="&lt;font color=&quot;#00ffff&quot;&gt;Icon&lt;/font&gt;" style="rounded=0;whiteSpace=wrap;html=1;" vertex="1" parent="1"><mxGeometry x="200" y="440" width="120" height="40" as="geometry"/></mxCell><mxCell id="27" value="&lt;font color=&quot;#66ffff&quot;&gt;//TODO (Id, name, color)&lt;/font&gt;" style="text;html=1;fillColor=none;align=center;verticalAlign=middle;whiteSpace=wrap;rounded=0;" vertex="1" parent="1"><mxGeometry x="200" y="480" width="160" height="20" as="geometry"/></mxCell></root></mxGraphModel></diagram></mxfile>